{"glyphs":{"$":{"x_min":0,"x_max":724,"ha":724,"o":"m 91 258 q 126 220 186 194 q 247 167 304 167 q 387 167 406 222 q 328 233 270 256 q 211 279 180 304 q 149 328 130 358 q 112 388 108 408 q 103 428 103 448 q 103 552 174 605 q 245 658 353 670 q 366 725 366 754 q 366 783 364 799 q 418 853 450 853 q 479 853 479 802 q 479 751 452 673 q 661 665 661 556 q 661 499 636 455 q 573 496 445 496 q 345 496 339 433 q 473 407 528 384 q 583 360 608 337 q 663 286 663 209 q 663 117 578 63 q 492 9 371 -1 q 358 -58 358 -92 q 358 -127 362 -142 q 313 -194 278 -194 q 246 -194 246 -139 q 246 -84 271 -1 q 156 5 109 42 q 62 78 62 139 q 62 200 91 258 z"},"<":{"x_min":0,"x_max":733,"ha":733,"o":"m 610 502 q 560 497 504 474 q 449 452 381 417 q 313 382 281 369 q 329 343 420 312 q 511 280 568 256 q 625 233 625 214 q 625 183 592 146 q 560 110 523 91 q 491 125 434 155 q 377 185 290 226 q 204 267 166 287 q 128 307 116 342 q 104 377 103 429 q 150 432 219 468 q 288 504 346 546 q 499 656 537 656 q 567 656 588 607 q 610 558 610 502 z"},"'":{"x_min":0,"x_max":286,"ha":286,"o":"m 129 446 q 70 446 70 496 q 70 526 96 600 q 122 675 122 707 q 122 739 115 759 q 160 780 207 780 q 266 780 266 730 q 266 698 240 624 q 214 550 214 518 q 214 487 221 467 q 176 446 129 446 z"},"=":{"x_min":0,"x_max":733,"ha":733,"o":"m 259 589 l 554 595 q 633 595 633 519 q 633 475 615 440 q 576 456 508 456 q 441 456 320 444 q 199 432 139 432 q 100 432 100 496 q 100 560 131 606 q 185 589 259 589 z m 259 302 l 554 308 q 633 308 633 232 q 633 188 615 153 q 576 169 508 169 q 441 169 320 157 q 199 145 139 145 q 100 145 100 209 q 100 273 131 319 q 185 302 259 302 z"},"a":{"x_min":0,"x_max":736,"ha":736,"o":"m 427 123 l 417 128 q 390 56 340 16 q 289 -25 227 -25 q 142 -25 91 39 q 40 103 40 210 q 40 376 152 488 q 263 600 429 600 q 472 600 508 592 q 514 564 515 543 q 565 575 618 575 q 691 575 691 496 q 691 468 660 327 q 628 186 628 118 q 628 50 659 24 q 603 -25 542 -25 q 482 -25 454 11 q 427 47 427 123 z m 228 259 q 228 210 248 184 q 269 157 307 157 q 345 157 382 185 q 419 213 444 262 q 453 363 483 501 q 382 501 305 428 q 228 355 228 259 z"},"L":{"x_min":0,"x_max":549,"ha":549,"o":"m 123 546 l 70 653 q 183 726 276 726 q 353 726 353 632 q 353 604 314 398 q 276 192 276 136 l 384 136 q 460 147 537 175 q 543 157 543 126 q 543 67 508 21 q 474 -25 413 -25 q 372 -25 271 -3 q 229 -26 182 -26 q 116 -26 88 12 q 60 49 60 124 q 60 198 123 546 z"},"3":{"x_min":0,"x_max":653,"ha":653,"o":"m 238 -29 q 285 -16 322 26 q 360 67 360 113 q 360 159 323 195 q 262 160 198 160 q 118 160 118 234 q 118 276 156 304 q 193 333 268 333 q 295 333 310 331 q 337 352 352 384 q 368 417 368 452 q 368 486 347 510 q 326 533 290 533 q 255 533 220 505 q 185 477 168 416 q 113 419 86 446 q 59 472 59 513 q 59 588 132 644 q 204 700 347 700 q 414 700 462 684 q 510 667 535 640 q 582 588 582 523 q 582 405 454 283 q 583 221 583 103 q 583 -4 476 -80 q 370 -156 197 -156 q 98 -156 44 -126 q -10 -97 -10 -47 q -10 3 24 30 q 58 56 99 56 q 140 56 177 34 q 214 12 238 -29 z"},"J":{"x_min":0,"x_max":553,"ha":553,"o":"m 302 489 q 161 489 96 520 q 32 551 32 636 q 32 666 42 721 q 111 692 206 674 q 301 657 355 657 q 393 724 460 724 q 504 724 528 696 q 553 669 553 626 q 553 584 520 547 l 485 260 q 476 183 446 122 q 415 61 373 26 q 288 -45 198 -45 q 108 -45 54 -6 q 0 34 0 90 q 0 147 33 180 q 66 212 110 212 q 155 212 193 181 q 231 150 251 88 l 276 108 q 249 183 249 228 q 249 253 268 343 q 287 433 302 489 z"},"V":{"x_min":0,"x_max":728,"ha":728,"o":"m 336 326 l 333 158 l 359 158 q 415 277 462 412 q 509 548 509 619 q 509 647 498 673 q 574 725 638 725 q 738 725 738 612 q 738 556 708 470 q 677 385 617 256 q 557 128 553 118 l 567 63 q 521 26 449 0 q 377 -25 290 -25 q 203 -25 161 3 q 119 31 119 97 l 120 281 q 120 510 64 604 q 38 647 0 673 q 68 725 156 725 q 236 725 275 662 q 314 600 326 513 q 336 434 336 326 z"},"\"":{"x_min":0,"x_max":516,"ha":516,"o":"m 359 446 q 300 446 300 496 q 300 526 326 600 q 352 675 352 707 q 352 739 345 759 q 390 780 437 780 q 496 780 496 730 q 496 698 470 624 q 444 550 444 518 q 444 487 451 467 q 406 446 359 446 z m 129 446 q 70 446 70 496 q 70 526 96 600 q 122 675 122 707 q 122 739 115 759 q 160 780 207 780 q 266 780 266 730 q 266 698 240 624 q 214 550 214 518 q 214 487 221 467 q 176 446 129 446 z"},"7":{"x_min":0,"x_max":612,"ha":612,"o":"m 137 0 q 137 83 198 206 q 260 330 363 462 q 314 459 272 459 q 172 459 116 506 q 61 554 61 637 q 61 669 65 700 q 143 674 260 656 q 376 639 446 639 q 487 709 552 709 q 592 709 614 685 q 637 661 637 626 q 637 557 569 516 q 499 380 435 210 q 371 41 371 -51 q 371 -81 380 -98 q 327 -121 273 -121 q 137 -121 137 0 z"},"S":{"x_min":0,"x_max":688,"ha":688,"o":"m 414 725 q 546 725 612 694 q 678 664 678 598 q 678 531 638 496 q 597 462 545 462 q 493 462 452 488 q 410 515 394 559 q 357 559 324 534 q 290 510 281 471 q 479 423 565 359 q 651 295 651 195 q 651 95 560 35 q 470 -25 316 -25 q 163 -25 99 17 q 35 59 35 128 q 35 197 78 255 q 99 210 158 174 q 218 138 276 138 q 383 138 412 206 q 246 228 159 298 q 72 369 72 469 q 72 536 108 588 q 144 641 200 669 q 310 725 414 725 z"},"}":{"x_min":0,"x_max":486,"ha":486,"o":"m 310 341 q 324 348 348 348 q 372 348 392 330 q 413 312 413 286 q 413 260 392 242 q 372 223 342 223 q 312 223 291 242 q 313 167 313 62 q 313 -65 252 -112 q 215 -141 176 -148 q 126 -157 62 -157 q -30 -157 -30 -58 q -30 -23 -25 -6 q -10 -13 34 -19 q 78 -25 105 -25 q 136 127 169 190 q 202 254 259 292 q 193 366 193 480 q 193 500 210 668 q 183 668 141 662 q 99 656 84 649 q 77 673 77 701 q 77 800 154 800 q 281 800 338 762 q 396 723 396 628 q 396 574 374 494 q 351 415 310 341 z"},"Z":{"x_min":0,"x_max":674,"ha":674,"o":"m 125 217 l 317 473 q 203 476 136 516 q 69 555 69 636 q 69 674 79 721 q 150 692 276 672 q 403 653 462 653 q 503 724 574 724 q 621 724 648 694 q 674 665 674 622 q 674 554 590 515 l 334 195 l 510 176 l 631 231 q 639 195 639 152 q 639 64 594 20 q 550 -25 480 -25 q 345 -25 220 54 q 158 -20 87 -20 q 39 -20 10 8 q -20 35 -20 85 q -20 135 18 176 q 57 217 125 217 z"},"x":{"x_min":0,"x_max":689,"ha":689,"o":"m 337 89 l 289 177 q 223 116 223 64 q 223 39 231 18 q 160 -25 97 -25 q 55 -25 30 2 q 5 28 5 71 q 5 135 62 190 q 118 246 194 283 l 223 297 l 163 407 q 124 479 47 505 q 109 600 209 600 q 254 600 285 576 q 316 551 352 485 l 396 404 q 456 461 456 511 q 456 536 448 557 q 519 600 582 600 q 624 600 649 574 q 674 547 674 504 q 674 440 618 384 q 561 329 485 292 l 463 281 l 526 167 q 565 93 642 69 q 579 -25 479 -25 q 433 -25 403 -1 q 373 23 337 89 z"},")":{"x_min":0,"x_max":415,"ha":415,"o":"m -10 -113 q 83 -29 130 128 q 176 284 176 402 q 176 521 150 604 q 125 687 58 753 q 127 801 190 801 q 266 801 306 718 q 345 635 345 497 q 345 359 308 208 q 271 56 209 -50 q 147 -156 86 -156 q 24 -156 -10 -113 z"},"&":{"x_min":0,"x_max":758,"ha":758,"o":"m 404 642 q 346 628 314 592 q 283 557 283 516 q 283 475 314 447 q 345 419 400 419 q 456 419 581 447 q 706 475 747 475 q 788 475 788 420 q 788 366 769 319 q 741 325 707 325 q 673 325 632 317 q 632 210 598 126 q 565 41 509 -10 q 395 -112 247 -112 q 135 -112 75 -55 q 15 2 15 80 q 15 158 58 228 q 100 297 178 343 q 130 372 105 417 q 80 462 80 512 q 80 615 180 695 q 280 775 447 775 q 533 775 583 742 q 633 710 633 661 q 633 612 600 586 q 566 560 526 560 q 487 560 454 581 q 422 602 404 642 z m 333 91 q 392 91 454 148 q 515 204 526 309 q 414 297 372 297 q 329 297 304 301 q 244 237 244 173 q 244 135 269 113 q 294 91 333 91 z"},"_":{"x_min":0,"x_max":723,"ha":723,"o":"m 179 -25 q 179 -25 395 -22 q 509 -19 624 -19 q 708 -19 708 -95 q 708 -142 688 -176 q 646 -158 547 -158 q 448 -158 270 -170 q 92 -182 59 -182 q 15 -182 15 -120 q 15 -58 49 -6 q 97 -25 179 -25 z"},"v":{"x_min":0,"x_max":703,"ha":703,"o":"m 95 110 q 95 110 99 385 q 99 501 45 557 q 97 600 159 600 q 240 600 269 528 q 294 466 294 340 q 294 215 289 97 l 323 97 q 475 416 475 512 q 475 535 466 557 q 540 600 600 600 q 678 600 678 506 q 678 463 656 398 q 634 334 588 232 q 543 131 541 127 l 554 69 q 512 31 434 3 q 356 -25 269 -25 q 182 -25 138 6 q 95 38 95 110 z"},"O":{"x_min":0,"x_max":774,"ha":774,"o":"m 25 306 q 25 496 131 610 q 237 725 421 725 q 480 725 506 702 q 531 678 531 629 q 531 622 529 602 q 566 632 611 632 q 672 632 716 578 q 759 523 759 420 q 759 317 726 231 q 693 145 638 90 q 584 35 514 5 q 445 -25 371 -25 q 211 -25 118 66 q 25 158 25 306 z m 524 259 q 460 337 460 427 q 460 517 500 572 q 482 575 464 575 q 393 575 341 532 q 243 452 243 310 q 243 229 279 175 q 315 121 379 121 q 428 121 468 160 q 509 198 524 259 z"},"(":{"x_min":0,"x_max":415,"ha":415,"o":"m 425 758 q 332 674 286 518 q 239 361 239 242 q 239 124 264 41 q 290 -42 357 -108 q 288 -156 225 -156 q 148 -156 109 -74 q 70 9 70 148 q 70 286 107 438 q 144 589 206 695 q 268 801 330 801 q 391 801 425 758 z"},"C":{"x_min":0,"x_max":683,"ha":683,"o":"m 30 307 q 30 377 60 450 q 90 522 145 584 q 200 646 288 686 q 377 725 472 725 q 566 725 620 690 q 673 655 673 593 q 673 531 632 496 q 592 462 540 462 q 488 462 446 484 q 405 507 380 549 q 326 523 287 447 q 248 371 248 294 q 248 218 273 174 q 298 129 344 129 q 390 129 426 176 q 461 223 461 289 q 562 289 606 273 q 649 257 649 204 q 649 121 559 48 q 469 -25 333 -25 q 197 -25 114 59 q 30 143 30 307 z"},"W":{"x_min":0,"x_max":1018,"ha":1018,"o":"m 626 399 l 623 158 l 649 158 q 705 277 752 412 q 799 548 799 619 q 799 647 788 673 q 864 725 928 725 q 1028 725 1028 612 q 1028 556 998 470 q 967 385 907 256 q 847 128 843 118 l 857 63 q 771 -25 642 -25 q 513 -25 479 22 q 395 -25 299 -25 q 203 -25 161 3 q 119 31 119 97 l 120 281 q 120 510 64 604 q 38 647 0 673 q 68 725 156 725 q 236 725 275 662 q 314 600 326 513 q 336 434 336 326 l 333 158 l 359 158 q 416 282 455 452 q 445 548 411 645 q 448 674 480 686 q 512 699 565 699 q 674 699 674 598 q 674 538 626 399 z"},"A":{"x_min":0,"x_max":729,"ha":729,"o":"m 635 578 l 627 340 q 627 217 648 133 q 668 49 724 17 q 655 -26 584 -26 q 459 -26 430 176 l 226 176 q 207 111 207 76 q 207 42 215 21 q 141 -26 83 -26 q -6 -26 -6 82 q -6 136 28 218 q 61 300 116 406 q 172 512 187 546 q 176 600 162 652 q 214 688 262 706 q 311 725 368 725 q 424 725 446 700 q 503 725 540 725 q 577 725 595 713 q 613 701 621 678 q 635 638 635 578 z m 434 555 l 402 555 q 312 381 268 281 l 423 281 q 423 390 434 555 z"},"f":{"x_min":0,"x_max":432,"ha":432,"o":"m 55 317 q 48 339 48 362 q 48 410 75 435 q 102 460 144 461 q 137 492 137 529 q 137 639 194 718 q 251 798 355 798 q 412 798 444 764 q 477 730 477 685 q 477 640 446 608 q 415 577 365 577 q 315 577 276 601 l 262 590 l 297 471 q 349 478 403 498 q 410 476 410 444 q 410 413 392 386 q 373 358 338 350 q 274 55 274 -70 q 274 -134 305 -161 q 232 -210 175 -210 q 63 -210 63 -72 q 63 14 125 334 q 80 325 55 317 z"},"Q":{"x_min":0,"x_max":774,"ha":774,"o":"m 25 306 q 25 496 131 610 q 237 725 421 725 q 480 725 506 702 q 531 678 531 629 q 531 622 529 602 q 566 632 611 632 q 672 632 716 578 q 759 523 759 421 q 759 239 666 123 q 574 7 438 -18 l 438 -24 q 498 -32 530 -32 q 628 -32 709 -2 q 720 -32 720 -68 q 720 -128 683 -168 q 646 -209 575 -209 q 443 -209 260 -104 q 212 -169 137 -169 q 98 -169 76 -144 q 54 -118 54 -82 q 54 -46 86 -16 q 117 14 175 14 l 175 22 q 102 64 64 138 q 25 211 25 306 z m 524 259 q 460 337 460 427 q 460 517 500 572 q 482 575 464 575 q 393 575 341 532 q 243 452 243 310 q 243 229 279 175 q 315 121 379 121 q 428 121 468 160 q 509 198 524 259 z"},"w":{"x_min":0,"x_max":966,"ha":966,"o":"m 96 89 q 99 307 99 385 q 99 501 45 557 q 97 600 159 600 q 236 600 265 536 q 294 471 294 343 q 294 215 289 97 l 323 97 q 406 240 423 321 q 422 372 408 438 q 395 505 379 532 q 394 551 425 564 q 456 576 494 576 q 532 576 564 553 q 597 530 597 485 q 597 457 588 432 q 579 407 570 380 q 561 354 555 337 l 551 97 l 585 97 q 642 207 690 328 q 737 449 737 512 q 737 535 728 557 q 796 600 859 600 q 941 600 941 506 q 941 463 919 398 q 897 334 852 232 q 806 131 804 127 l 818 69 q 779 39 700 7 q 622 -25 557 -25 q 453 -25 432 66 q 338 -25 233 -25 q 175 -25 136 2 q 96 28 96 89 z"},"-":{"x_min":0,"x_max":528,"ha":528,"o":"m 118 183 q 55 183 55 256 q 55 309 83 370 q 104 363 144 363 q 185 363 274 395 q 364 427 410 427 q 473 427 473 354 q 473 301 445 240 q 424 247 384 247 q 343 247 254 215 q 164 183 118 183 z"},"E":{"x_min":0,"x_max":619,"ha":619,"o":"m 123 546 l 70 653 q 183 726 276 726 q 335 726 349 670 q 462 673 631 721 q 639 688 639 656 q 639 575 586 534 q 532 493 448 493 q 391 493 336 517 q 328 472 308 370 q 345 363 371 363 q 412 371 461 386 q 466 369 466 330 q 466 292 435 269 q 404 246 366 246 q 327 246 287 255 q 276 192 276 136 l 438 136 q 514 147 591 175 q 597 157 597 126 q 597 67 562 21 q 528 -25 467 -25 q 435 -25 374 -12 q 312 0 282 3 q 234 -26 175 -26 q 116 -26 88 12 q 60 49 60 124 q 60 198 123 546 z"},"s":{"x_min":0,"x_max":643,"ha":643,"o":"m 374 467 q 337 456 315 436 q 293 415 276 377 q 445 352 514 305 q 583 258 583 171 q 583 116 552 76 q 521 35 474 14 q 382 -25 293 -25 q 40 -25 40 84 q 40 139 89 194 q 114 159 164 134 q 215 109 263 109 q 346 109 363 182 q 211 200 143 250 q 75 300 75 391 q 75 463 122 512 q 170 561 240 580 q 311 600 400 600 q 488 600 546 566 q 603 533 603 485 q 603 437 570 411 q 536 385 496 385 q 457 385 424 406 q 392 427 374 467 z"},">":{"x_min":0,"x_max":733,"ha":733,"o":"m 118 241 q 168 246 224 268 q 279 291 347 326 q 415 361 447 374 q 399 400 308 432 q 217 463 160 486 q 103 510 103 529 q 103 560 136 596 q 168 633 205 652 q 237 618 294 588 q 351 558 438 517 q 524 476 562 456 q 600 436 612 401 q 624 366 625 314 q 578 311 509 275 q 440 239 382 198 q 229 87 191 87 q 161 87 140 136 q 118 185 118 241 z"},"l":{"x_min":0,"x_max":385,"ha":385,"o":"m 149 622 l 93 702 q 218 775 290 775 q 331 775 348 758 q 365 742 365 696 q 365 651 320 440 q 276 229 276 144 q 276 59 307 24 q 237 -25 180 -25 q 123 -25 96 12 q 70 50 70 116 q 70 182 107 386 q 144 590 149 622 z"},"8":{"x_min":0,"x_max":675,"ha":675,"o":"m 203 378 q 169 410 150 431 q 131 452 113 486 q 95 521 95 556 q 95 654 174 714 q 254 773 386 773 q 460 773 512 755 q 564 737 590 707 q 636 652 636 592 q 636 532 601 484 q 566 435 509 400 q 570 358 609 304 q 648 251 648 197 q 648 97 554 36 q 459 -26 316 -26 q 237 -26 182 -8 q 126 11 100 42 q 51 97 51 160 q 51 224 92 280 q 134 337 203 378 z m 344 261 l 287 308 q 233 266 233 196 q 233 151 258 119 q 284 87 323 87 q 362 87 388 109 q 415 131 415 161 q 415 191 401 208 q 387 225 344 261 z m 340 531 l 422 460 q 465 500 465 568 q 465 608 444 634 q 424 661 388 662 q 352 662 329 642 q 306 622 306 592 q 306 561 340 531 z"},"\\":{"x_min":0,"x_max":397,"ha":397,"o":"m 216 23 q 187 125 141 303 q 95 481 62 600 q 28 718 -20 789 q 32 836 96 836 q 159 836 175 772 q 179 758 235 520 q 291 282 334 134 q 376 -15 417 -53 q 376 -85 327 -85 q 246 -85 216 23 z"},"e":{"x_min":0,"x_max":657,"ha":657,"o":"m 331 -25 q 194 -25 120 46 q 45 117 45 238 q 45 399 156 500 q 266 600 433 600 q 526 600 574 558 q 622 517 622 449 q 622 356 532 294 q 441 233 252 232 q 255 168 281 132 q 307 95 346 95 q 385 95 414 121 q 442 147 442 206 q 588 206 588 137 q 588 78 516 26 q 444 -25 331 -25 z m 416 483 q 365 483 322 432 q 280 381 261 312 q 361 320 412 358 q 462 395 462 437 q 462 457 450 470 q 437 483 416 483 z"},"b":{"x_min":0,"x_max":739,"ha":739,"o":"m 66 190 q 66 274 131 622 l 75 702 q 137 739 180 757 q 222 775 264 775 q 307 775 327 758 q 347 741 347 704 q 347 640 308 453 l 318 448 q 390 591 528 591 q 606 591 650 524 q 694 458 694 364 q 694 269 656 194 q 619 118 560 72 q 500 25 430 0 q 360 -25 291 -25 q 178 -25 122 27 q 66 79 66 190 z m 264 91 q 375 91 444 167 q 514 243 514 337 q 514 380 490 415 q 467 450 429 450 q 391 450 358 419 q 326 388 308 345 q 291 302 280 248 q 264 163 264 91 z"},"%":{"x_min":0,"x_max":1150,"ha":1150,"o":"m 330 13 q 376 64 434 177 q 478 267 548 412 q 617 556 658 640 q 700 725 765 725 q 803 725 832 699 q 786 654 732 546 q 678 437 598 258 q 519 80 494 28 q 468 -25 416 -25 q 365 -25 330 13 z m 18 417 q 18 316 76 254 q 133 193 238 193 q 343 193 422 272 q 500 352 500 476 q 500 629 382 656 q 380 682 374 690 q 351 700 314 700 q 182 700 100 622 q 18 544 18 417 z m 239 307 q 216 307 203 334 q 190 362 190 405 q 190 493 233 559 q 248 562 259 562 q 322 562 322 478 q 322 413 296 360 q 271 307 239 307 z m 651 205 q 651 104 708 42 q 766 -19 871 -19 q 976 -19 1054 60 q 1133 140 1133 264 q 1133 417 1015 444 q 1013 470 1007 478 q 984 488 947 488 q 815 488 733 410 q 651 332 651 205 z m 872 95 q 849 95 836 122 q 823 150 823 193 q 823 281 866 347 q 881 350 892 350 q 955 350 955 266 q 955 201 930 148 q 904 95 872 95 z"},"m":{"x_min":0,"x_max":1131,"ha":1131,"o":"m 693 422 l 703 417 q 810 600 965 600 q 1086 600 1086 479 q 1086 427 1056 303 q 1027 179 1027 116 q 1027 53 1048 24 q 995 -25 936 -25 q 821 -25 821 99 q 821 145 851 255 q 881 365 881 398 q 881 443 847 443 q 819 443 784 418 q 750 394 718 352 q 687 311 666 248 q 644 184 644 118 q 644 53 665 24 q 612 -25 553 -25 q 438 -25 438 99 q 438 145 468 255 q 498 365 498 398 q 498 443 464 443 q 436 443 402 418 q 367 394 336 352 q 304 311 282 248 q 261 184 261 118 q 261 53 282 24 q 229 -25 170 -25 q 55 -25 55 99 q 55 139 76 254 q 96 369 118 464 l 66 544 q 165 600 249 600 q 333 600 333 524 q 333 474 310 422 l 320 417 q 427 600 582 600 q 638 600 670 572 q 703 544 703 488 q 703 458 693 422 z"},"#":{"x_min":0,"x_max":733,"ha":733,"o":"m 342 600 l 500 603 q 522 698 536 754 q 552 818 616 818 q 679 818 731 771 q 693 714 657 605 l 667 605 q 751 605 751 529 q 751 482 731 448 q 692 464 617 466 l 574 303 l 591 303 q 675 303 675 227 q 675 180 655 146 q 615 162 538 164 q 518 85 495 5 q 465 -103 384 -103 q 335 -103 294 -71 q 335 -33 378 115 l 390 160 q 324 158 220 150 l 181 5 q 151 -103 70 -103 q 21 -103 -20 -71 q 21 -33 64 115 l 71 141 q 54 140 26 140 q -18 140 -18 202 q -18 264 16 316 q 52 302 113 298 l 148 443 q 131 442 102 442 q 58 442 58 504 q 58 566 92 618 q 126 604 185 600 q 202 676 222 754 q 238 818 302 818 q 365 818 417 771 q 376 712 342 600 z m 259 298 l 428 301 l 467 462 q 403 460 300 452 q 282 390 259 298 z"},",":{"x_min":0,"x_max":333,"ha":333,"o":"m 118 -2 l 48 88 q 50 136 88 172 q 126 208 176 208 q 226 208 255 174 q 284 140 284 93 q 284 -11 214 -92 q 144 -172 27 -196 l 12 -152 q 59 -130 88 -86 q 118 -41 118 -2 z"},"n":{"x_min":0,"x_max":758,"ha":758,"o":"m 118 464 l 66 544 q 165 600 249 600 q 333 600 333 524 q 333 474 310 422 l 320 417 q 427 600 592 600 q 713 600 713 479 q 713 427 684 303 q 654 179 654 116 q 654 53 675 24 q 622 -25 563 -25 q 448 -25 448 99 q 448 145 478 255 q 508 365 508 398 q 508 443 474 443 q 446 443 410 418 q 374 394 340 352 q 307 311 284 248 q 261 184 261 118 q 261 53 282 24 q 229 -25 170 -25 q 111 -25 83 6 q 55 37 55 88 q 55 139 76 254 q 96 369 118 464 z"},"h":{"x_min":0,"x_max":773,"ha":773,"o":"m 607 600 q 728 600 728 479 q 728 427 698 303 q 669 179 669 116 q 669 53 690 24 q 637 -25 578 -25 q 463 -25 463 99 q 463 145 493 255 q 523 365 523 398 q 523 443 489 443 q 461 443 425 418 q 389 394 356 352 q 322 311 299 248 q 276 184 276 118 q 276 53 297 24 q 244 -25 185 -25 q 70 -25 70 99 q 70 173 110 399 q 144 598 149 622 l 93 702 q 218 775 290 775 q 331 775 348 758 q 365 742 365 704 q 365 632 351 547 q 337 462 325 422 l 335 417 q 442 600 607 600 z"},"z":{"x_min":0,"x_max":624,"ha":624,"o":"m 220 25 q 165 -18 115 -18 q 65 -18 40 10 q 15 38 15 80 q 15 123 46 159 q 77 195 134 202 l 298 376 q 174 380 127 413 q 80 446 80 514 q 80 541 91 605 q 158 577 246 554 q 334 532 384 530 q 400 561 432 580 q 463 600 506 600 q 550 600 577 574 q 604 548 604 506 q 604 433 531 401 l 324 164 q 389 144 427 143 l 563 196 q 584 142 584 94 q 584 45 538 10 q 492 -25 427 -25 q 362 -25 290 0 q 265 8 220 25 z"},"B":{"x_min":0,"x_max":757,"ha":757,"o":"m 123 546 l 70 653 q 183 726 276 726 q 338 726 350 666 q 453 725 552 725 q 617 725 666 695 q 724 660 724 574 q 724 432 567 368 q 727 340 727 189 q 727 91 646 33 q 565 -25 464 -25 q 364 -25 303 17 q 244 -26 180 -26 q 116 -26 88 12 q 60 49 60 124 q 60 198 123 546 z m 292 283 q 276 198 276 138 q 325 115 378 115 q 431 115 464 140 q 496 165 496 212 q 496 258 468 280 q 441 302 395 302 q 349 302 292 283 z m 431 593 q 392 593 347 578 q 341 539 310 378 q 393 384 451 418 q 509 453 509 518 q 509 593 431 593 z"},"K":{"x_min":0,"x_max":720,"ha":720,"o":"m 123 546 l 70 653 q 183 726 276 726 q 353 726 353 632 q 353 604 311 386 l 358 425 q 504 547 504 633 q 504 659 496 680 q 570 725 636 725 q 734 725 734 625 q 734 513 535 398 q 628 100 736 30 q 714 8 670 -8 q 627 -25 593 -25 q 525 -25 484 10 q 443 45 410 139 l 352 302 l 290 269 q 276 187 276 164 q 276 67 306 19 q 246 -26 181 -26 q 116 -26 88 12 q 60 49 60 124 q 60 198 123 546 z"},"R":{"x_min":0,"x_max":733,"ha":733,"o":"m 427 139 l 392 240 q 340 240 287 256 q 276 192 276 164 q 276 67 306 19 q 246 -26 181 -26 q 116 -26 88 12 q 60 49 60 124 q 60 198 123 546 l 70 653 q 182 725 276 725 q 348 725 387 695 q 462 725 522 725 q 614 725 668 663 q 722 601 722 514 q 722 449 689 388 q 656 328 592 290 q 626 193 668 123 q 711 53 753 30 q 732 8 688 -8 q 645 -25 610 -25 q 542 -25 501 10 q 460 44 427 139 z m 331 365 q 411 365 456 406 q 500 447 500 494 q 500 541 474 569 q 448 597 400 597 q 374 597 348 590 q 316 399 308 366 q 315 365 331 365 z"},"T":{"x_min":0,"x_max":595,"ha":595,"o":"m 13 552 q 13 633 55 674 q 97 715 156 715 q 214 715 315 695 q 416 675 467 674 q 552 690 629 713 q 637 687 637 648 q 637 567 590 526 q 544 485 472 485 q 454 485 424 487 q 369 198 369 164 q 369 67 399 19 q 339 -26 274 -26 q 209 -26 181 12 q 153 49 153 124 q 153 198 211 521 q 98 506 21 487 q 13 512 13 552 z"},"P":{"x_min":0,"x_max":717,"ha":717,"o":"m 282 219 q 276 183 276 164 q 276 67 306 19 q 246 -26 181 -26 q 116 -26 88 12 q 60 49 60 124 q 60 198 123 546 l 70 653 q 183 726 276 726 q 302 726 333 716 q 364 707 377 695 q 451 724 514 724 q 608 724 662 658 q 717 593 717 500 q 717 388 636 300 q 597 257 531 231 q 465 205 396 205 q 328 205 282 219 z m 301 333 q 315 330 330 330 q 394 330 444 375 q 494 420 494 486 q 494 532 468 564 q 441 596 393 596 q 373 596 347 588 q 327 451 301 333 z"},"|":{"x_min":0,"x_max":479,"ha":479,"o":"m 110 -168 q 140 -97 146 30 q 151 156 156 396 q 161 636 166 758 q 168 816 192 845 q 216 874 272 874 q 329 874 364 840 q 319 758 319 379 q 319 270 325 103 q 331 -64 331 -150 q 331 -219 250 -219 q 156 -219 110 -168 z"},"t":{"x_min":0,"x_max":476,"ha":476,"o":"m 67 361 q 60 389 60 413 q 60 462 89 487 q 118 512 164 512 q 164 564 137 625 q 186 661 226 680 q 267 698 312 698 q 357 698 374 682 q 392 665 392 631 q 392 597 378 525 q 418 531 459 542 q 466 521 466 488 q 466 455 440 426 q 415 398 366 398 l 351 398 q 315 235 315 147 q 315 59 346 24 q 290 -25 227 -25 q 164 -25 136 12 q 109 50 109 129 q 109 177 144 381 q 104 374 67 361 z"},"M":{"x_min":0,"x_max":1036,"ha":1036,"o":"m 757 458 l 741 458 q 680 378 640 267 q 600 156 591 67 q 542 21 478 21 q 452 21 432 40 q 413 58 394 104 q 357 197 341 458 l 325 458 q 276 243 276 155 q 276 67 306 19 q 246 -26 181 -26 q 116 -26 88 12 q 60 49 60 124 q 60 198 123 546 l 70 653 q 183 726 276 726 q 317 726 346 718 q 374 709 400 685 q 427 661 444 618 q 483 521 500 335 l 512 335 q 564 488 656 598 q 706 657 776 691 q 845 725 926 725 q 1003 725 1003 632 q 1003 601 964 402 q 926 202 926 164 q 926 67 956 19 q 896 -26 831 -26 q 766 -26 738 12 q 710 49 710 122 q 710 195 757 458 z"},"g":{"x_min":0,"x_max":729,"ha":729,"o":"m 239 280 q 239 229 268 198 q 296 166 338 166 q 395 166 440 220 q 457 309 484 501 q 372 501 306 436 q 239 371 239 280 z m 104 -21 q 150 -89 242 -89 q 302 -89 354 -38 q 405 14 422 113 l 412 118 q 341 14 230 14 q 146 14 98 79 q 50 144 50 252 q 50 356 107 442 q 172 541 288 579 q 352 600 410 600 q 468 600 508 592 q 514 565 515 543 q 562 575 610 575 q 679 575 679 504 q 679 433 670 358 q 661 284 642 199 q 623 114 588 38 q 552 -37 504 -100 q 457 -162 386 -198 q 315 -235 236 -235 q 158 -235 110 -206 q 63 -176 63 -126 q 63 -76 104 -21 z"},"j":{"x_min":0,"x_max":392,"ha":392,"o":"m 134 739 q 134 785 177 811 q 220 837 268 837 q 316 837 346 817 q 375 797 375 758 q 375 720 335 692 q 295 665 244 665 q 193 665 164 685 q 134 705 134 739 z m 342 526 q 342 442 260 37 q 239 -68 186 -139 q 134 -210 51 -210 q -8 -210 -38 -182 q -68 -155 -68 -112 q -68 -68 -38 -42 q -8 -15 36 -15 q 81 -15 129 -48 l 139 -34 q 96 10 83 37 q 70 64 70 100 q 70 137 126 441 l 70 525 q 195 600 267 600 q 308 600 325 582 q 342 565 342 526 z"},"i":{"x_min":0,"x_max":388,"ha":388,"o":"m 137 739 q 137 785 180 811 q 223 837 271 837 q 319 837 348 817 q 378 797 378 758 q 378 720 338 692 q 298 665 247 665 q 196 665 166 685 q 137 705 137 739 z m 129 441 l 73 525 q 198 600 270 600 q 311 600 328 582 q 345 565 345 526 q 345 511 308 350 q 271 189 271 120 q 271 51 302 24 q 246 -25 184 -25 q 121 -25 93 6 q 65 37 65 100 q 65 164 129 441 z"},"y":{"x_min":0,"x_max":695,"ha":695,"o":"m 332 20 q 285 3 238 3 q 191 3 159 31 q 127 59 122 107 q 117 155 113 246 q 109 338 105 376 q 92 503 25 557 q 72 600 143 600 q 182 600 211 580 q 240 559 258 526 q 275 492 286 439 q 303 351 303 201 q 303 164 300 114 l 358 114 q 461 392 461 493 q 461 527 446 557 q 516 600 568 600 q 665 600 665 488 q 665 399 583 175 q 568 134 566 127 q 439 -235 205 -235 q 134 -235 88 -204 q 42 -174 42 -124 q 42 -75 79 -21 q 127 -89 199 -89 q 240 -89 276 -62 q 311 -35 332 20 z"},"@":{"x_min":0,"x_max":1090,"ha":1090,"o":"m 293 288 q 293 403 360 497 q 392 543 446 572 q 501 600 562 600 q 624 600 645 594 q 651 573 651 560 q 699 592 759 592 q 810 592 810 544 q 810 514 788 424 q 765 333 765 278 q 765 198 816 198 q 875 198 914 256 q 953 314 953 413 q 953 530 874 616 q 833 659 761 684 q 689 710 592 710 q 495 710 414 673 q 332 636 280 576 q 228 516 200 441 q 171 366 171 278 q 171 191 200 120 q 230 48 284 6 q 389 -74 558 -74 q 778 -74 917 65 q 937 17 937 -21 q 937 -83 880 -133 q 823 -183 732 -209 q 642 -235 545 -235 q 448 -235 366 -208 q 284 -181 214 -126 q 144 -71 102 26 q 60 122 60 237 q 60 352 95 449 q 130 546 196 625 q 263 704 370 752 q 478 800 596 800 q 715 800 800 768 q 886 735 940 681 q 1050 569 1050 420 q 1050 333 1017 256 q 984 180 912 128 q 840 77 743 77 q 678 77 644 112 q 609 146 602 199 l 594 203 q 566 153 524 126 q 481 100 436 100 q 376 100 334 148 q 293 197 293 288 z m 603 287 q 616 412 643 511 q 557 503 510 458 q 464 412 464 348 q 464 310 484 286 q 503 261 539 261 q 575 261 603 287 z"},"p":{"x_min":0,"x_max":766,"ha":766,"o":"m 127 448 l 71 528 q 133 564 178 582 q 223 601 267 601 q 339 601 339 506 q 339 493 335 453 l 345 448 q 374 520 429 560 q 484 601 558 601 q 633 601 677 534 q 721 466 721 366 q 721 232 627 122 q 581 68 504 34 q 427 1 332 1 q 303 1 256 6 q 253 -29 253 -59 q 253 -123 284 -150 q 228 -199 166 -199 q 104 -199 80 -168 q 55 -138 55 -80 q 55 -23 80 151 q 104 325 127 448 z m 297 215 l 274 99 q 395 102 468 178 q 540 255 540 346 q 540 393 522 422 q 503 450 468 450 q 344 450 297 215 z"},"X":{"x_min":0,"x_max":749,"ha":749,"o":"m 564 -25 q 497 -25 458 10 q 419 45 363 150 l 321 228 q 253 147 253 82 q 253 50 262 27 q 186 -25 114 -25 q 61 -25 36 2 q 10 29 10 69 q 10 188 249 363 l 160 531 q 108 631 38 654 q 106 725 199 725 q 266 725 305 690 q 344 655 400 550 l 441 472 q 511 552 511 618 q 511 648 501 673 q 578 725 650 725 q 703 725 728 698 q 754 671 754 631 q 754 505 516 331 l 603 169 q 655 69 725 46 q 657 -25 564 -25 z"},"*":{"x_min":0,"x_max":592,"ha":592,"o":"m 313 433 q 252 347 243 310 q 193 314 152 339 q 110 364 110 386 q 110 409 134 436 q 159 462 212 508 q 132 536 74 537 q 67 564 67 600 q 67 637 82 663 q 96 689 123 689 q 150 689 254 627 q 253 731 239 768 q 293 800 334 800 q 375 800 388 786 q 400 772 400 739 q 400 706 378 625 q 485 659 509 681 q 537 657 557 622 q 577 588 577 567 q 577 535 538 524 q 498 513 415 506 q 455 452 472 433 q 489 414 509 399 q 494 359 462 328 q 431 296 408 296 q 363 296 313 433 z m 314 461 q 340 487 401 513 q 370 568 370 609 q 332 604 317 604 q 302 604 269 609 q 262 551 235 514 q 295 492 314 461 z"},"Y":{"x_min":0,"x_max":672,"ha":672,"o":"m 122 180 q 121 200 118 264 q 115 328 112 362 q 110 395 102 453 q 93 511 80 546 q 48 638 -10 678 q 68 725 116 725 q 165 725 197 709 q 229 693 250 670 q 270 648 286 608 q 302 568 310 535 q 318 502 324 450 q 329 398 330 366 q 332 334 334 282 q 335 229 336 209 l 350 209 q 389 302 422 422 q 454 542 454 613 q 454 648 439 678 q 514 725 572 725 q 682 725 682 609 q 682 550 637 411 q 592 272 531 142 q 452 -27 368 -102 q 285 -177 154 -177 q 96 -177 49 -154 q -8 -127 -8 -63 q -8 1 41 69 q 63 37 100 20 q 137 2 182 2 q 226 2 266 26 q 305 51 322 97 q 269 84 225 84 q 130 84 122 180 z"},"c":{"x_min":0,"x_max":638,"ha":638,"o":"m 45 238 q 45 398 155 499 q 265 600 432 600 q 518 600 568 568 q 618 535 618 486 q 618 437 584 411 q 551 385 512 385 q 472 385 440 406 q 407 427 389 467 q 326 441 290 375 q 253 309 253 243 q 253 177 279 136 q 305 95 347 95 q 389 95 416 123 q 442 151 442 206 q 588 206 588 137 q 588 78 514 26 q 440 -25 319 -25 q 198 -25 122 48 q 45 120 45 238 z"},"/":{"x_min":0,"x_max":397,"ha":397,"o":"m 181 23 q 151 -85 70 -85 q 21 -85 -20 -53 q 21 -15 64 134 q 106 282 162 520 q 218 758 222 772 q 238 836 302 836 q 365 836 417 789 q 369 718 336 600 q 302 481 256 303 q 210 125 181 23 z"},"[":{"x_min":0,"x_max":481,"ha":481,"o":"m 85 15 q 85 231 163 584 q 179 657 202 701 q 224 745 260 766 q 295 788 331 794 q 367 800 422 800 q 477 800 494 776 q 511 752 511 709 q 511 666 506 649 q 491 656 447 662 q 403 668 376 668 q 317 551 294 382 q 271 214 271 -25 q 298 -25 340 -19 q 382 -13 397 -6 q 405 -33 405 -58 q 405 -157 337 -157 q 260 -157 226 -154 q 192 -151 152 -136 q 113 -120 99 -84 q 85 -48 85 15 z"},"6":{"x_min":0,"x_max":674,"ha":674,"o":"m 656 306 q 656 166 546 70 q 437 -25 288 -25 q 174 -25 106 46 q 37 116 37 250 q 37 360 81 468 q 125 577 192 654 q 259 731 339 779 q 419 827 485 827 q 551 827 584 804 q 616 780 638 727 q 538 693 467 642 q 396 592 343 511 q 378 519 408 519 q 525 519 590 460 q 656 400 656 306 z m 433 283 q 433 332 414 365 q 396 398 356 398 q 316 398 282 352 q 247 307 247 230 q 247 179 266 144 q 285 108 325 108 q 365 108 399 154 q 433 201 433 283 z"},"r":{"x_min":0,"x_max":529,"ha":529,"o":"m 55 99 q 55 139 76 254 q 96 369 118 464 l 66 544 q 191 600 242 600 q 292 600 292 536 q 292 501 259 390 l 269 385 q 341 600 448 600 q 497 600 523 570 q 549 540 549 503 q 549 448 508 409 q 467 370 385 370 q 261 370 261 115 q 261 53 282 24 q 220 -25 168 -25 q 55 -25 55 99 z"},"2":{"x_min":0,"x_max":715,"ha":715,"o":"m 244 32 q 178 -19 122 -19 q 66 -19 39 14 q 12 47 12 100 q 12 152 56 196 q 99 241 173 241 q 196 241 218 236 q 303 308 345 361 q 387 414 387 454 q 387 493 366 514 q 344 535 308 535 q 249 535 214 480 q 197 455 184 417 q 139 422 116 448 q 93 474 93 513 q 93 588 166 644 q 238 700 386 700 q 507 700 568 642 q 628 585 628 510 q 628 377 391 191 q 477 177 526 177 l 643 222 q 654 176 654 138 q 654 56 609 16 q 564 -25 500 -25 q 436 -25 382 -12 q 327 2 244 32 z"},"{":{"x_min":0,"x_max":486,"ha":486,"o":"m 175 301 q 160 295 137 295 q 114 295 94 313 q 73 331 73 357 q 73 383 94 402 q 114 420 144 420 q 173 420 194 401 q 173 476 173 581 q 173 708 234 755 q 271 784 310 791 q 360 800 424 800 q 516 800 516 701 q 516 666 511 649 q 496 656 452 662 q 408 668 381 668 q 350 516 317 452 q 284 389 227 351 q 293 277 293 163 q 293 143 276 -25 q 303 -25 345 -19 q 387 -13 402 -6 q 409 -30 409 -58 q 409 -157 332 -157 q 205 -157 148 -118 q 90 -80 90 15 q 90 69 112 148 q 134 227 175 301 z"},"9":{"x_min":0,"x_max":746,"ha":746,"o":"m 229 -143 q 109 -143 81 -43 q 276 11 386 182 q 338 171 290 171 q 177 171 120 232 q 62 293 62 382 q 62 471 114 546 q 165 620 248 660 q 332 700 438 700 q 543 700 612 637 q 681 574 681 460 q 681 347 638 236 q 596 124 530 42 q 465 -40 384 -92 q 303 -143 229 -143 z m 285 402 q 285 353 304 320 q 322 287 362 287 q 402 287 436 332 q 471 378 471 455 q 471 506 452 541 q 433 576 393 576 q 353 576 319 530 q 285 483 285 402 z"}," ":{"x_min":0,"x_max":300,"ha":300,"o":""},"I":{"x_min":0,"x_max":388,"ha":388,"o":"m 128 546 l 75 653 q 188 726 281 726 q 358 726 358 632 q 358 601 320 402 q 281 202 281 164 q 281 67 311 19 q 251 -26 186 -26 q 121 -26 93 12 q 65 49 65 124 q 65 198 128 546 z"},"H":{"x_min":0,"x_max":824,"ha":824,"o":"m 501 129 q 501 171 515 267 l 289 267 q 276 192 276 164 q 276 67 306 19 q 246 -26 181 -26 q 116 -26 88 12 q 60 49 60 124 q 60 198 123 546 l 70 653 q 183 726 276 726 q 353 726 353 632 q 353 604 311 386 l 535 386 q 539 411 564 546 l 511 653 q 624 726 717 726 q 794 726 794 632 q 794 601 756 402 q 717 202 717 164 q 717 67 747 19 q 687 -26 622 -26 q 557 -26 529 12 q 501 49 501 129 z"},"4":{"x_min":0,"x_max":707,"ha":707,"o":"m 364 -32 q 364 -7 368 16 q 286 0 205 0 q 19 0 19 115 q 19 181 115 354 q 151 419 181 497 q 211 575 211 630 q 211 655 203 677 q 264 700 310 700 q 445 700 445 566 q 445 386 186 130 l 394 130 q 421 224 460 304 q 487 331 545 354 q 603 377 652 377 q 667 377 672 372 q 677 366 677 349 q 677 332 660 268 q 608 78 608 -41 q 608 -98 632 -134 q 562 -170 495 -170 q 428 -170 396 -132 q 364 -93 364 -32 z"},"~":{"x_min":0,"x_max":733,"ha":733,"o":"m 598 328 q 547 354 487 354 q 427 354 320 312 q 213 270 157 270 q 97 270 97 340 q 97 393 136 450 q 185 431 243 431 q 301 431 397 470 q 493 508 544 508 q 636 508 636 429 q 636 378 598 328 z"},"D":{"x_min":0,"x_max":776,"ha":776,"o":"m 60 163 q 60 220 87 364 q 114 508 120 546 l 67 653 q 194 725 283 725 q 327 725 349 695 q 432 724 502 724 q 632 724 704 640 q 776 555 776 429 q 776 263 654 124 q 595 57 498 16 q 402 -25 292 -25 q 182 -25 121 24 q 60 72 60 163 z m 272 125 q 293 121 319 121 q 428 121 489 200 q 550 278 550 393 q 550 486 508 541 q 466 596 387 596 q 375 596 347 592 q 340 541 310 364 q 281 188 272 125 z"},"^":{"x_min":0,"x_max":733,"ha":733,"o":"m 468 959 q 467 955 467 946 q 467 899 496 832 q 526 764 561 708 q 655 559 655 514 q 655 478 600 450 q 544 422 487 422 q 472 422 465 423 q 465 492 431 582 q 417 619 412 631 q 408 643 390 684 q 372 726 371 728 q 352 695 313 606 q 274 516 243 462 q 212 407 189 407 q 152 407 112 447 q 71 487 58 528 q 96 555 144 634 q 158 657 210 750 q 263 843 292 888 q 320 933 362 946 q 404 959 468 959 z"},"0":{"x_min":0,"x_max":758,"ha":758,"o":"m 55 295 q 55 477 165 588 q 275 700 452 700 q 503 700 533 685 q 542 675 545 637 q 626 618 664 550 q 703 482 703 380 q 703 203 598 89 q 492 -25 351 -25 q 210 -25 132 63 q 55 151 55 295 z m 499 380 q 499 524 379 524 q 360 524 332 519 q 251 414 251 280 q 251 208 278 162 q 304 117 357 117 q 410 117 454 198 q 499 280 499 380 z"},"F":{"x_min":0,"x_max":589,"ha":589,"o":"m 123 546 l 70 653 q 183 726 276 726 q 335 726 349 670 q 451 673 621 721 q 629 676 629 645 q 629 581 580 544 q 532 508 468 508 q 404 508 340 539 q 340 539 331 490 q 324 451 308 371 q 342 363 372 363 q 413 371 462 386 q 467 369 467 330 q 467 292 436 269 q 405 246 366 246 q 327 246 287 255 q 276 192 276 164 q 276 67 306 19 q 246 -26 181 -26 q 116 -26 88 12 q 60 49 60 124 q 60 198 123 546 z"},"`":{"x_min":0,"x_max":376,"ha":376,"o":"m 300 653 q 258 653 178 686 q 99 720 53 720 q 44 720 30 718 q 20 752 20 791 q 20 886 76 886 q 113 886 160 852 q 208 819 260 779 q 313 739 356 729 q 353 690 338 672 q 322 653 300 653 z"},"k":{"x_min":0,"x_max":724,"ha":724,"o":"m 144 622 l 88 702 q 213 775 285 775 q 326 775 343 758 q 360 742 360 704 q 360 665 348 596 q 335 527 314 433 q 294 339 285 282 l 348 338 q 357 346 378 364 q 398 381 406 389 q 415 397 430 412 q 445 426 452 436 q 459 446 468 459 q 482 481 482 508 q 482 536 474 557 q 545 600 608 600 q 650 600 675 574 q 700 547 700 497 q 700 447 654 396 q 609 346 542 308 q 573 205 622 119 q 671 33 704 16 q 664 -25 580 -25 q 518 -25 476 17 q 433 59 400 155 l 375 226 l 272 175 q 271 164 271 142 q 271 59 302 24 q 232 -25 175 -25 q 118 -25 92 12 q 65 50 65 116 q 65 182 102 386 q 139 590 144 622 z"},"u":{"x_min":0,"x_max":764,"ha":764,"o":"m 223 -25 q 135 -25 100 18 q 65 61 65 126 q 65 192 87 306 q 109 420 109 471 q 109 522 88 551 q 181 600 245 600 q 286 600 304 584 q 323 567 323 530 q 323 493 292 348 q 262 204 262 170 q 262 136 281 116 q 300 97 331 97 q 362 97 397 122 q 432 146 454 191 q 468 272 509 447 l 449 527 q 550 600 641 600 q 686 600 706 584 q 725 567 725 534 q 725 500 688 342 q 652 184 652 118 q 652 51 683 24 q 627 -25 566 -25 q 504 -25 477 2 q 450 29 450 73 l 440 78 q 407 30 348 2 q 290 -25 223 -25 z"},"]":{"x_min":0,"x_max":481,"ha":481,"o":"m 396 628 q 396 412 318 59 q 302 -14 280 -58 q 257 -102 222 -124 q 186 -145 150 -151 q 114 -157 59 -157 q 4 -157 -13 -133 q -30 -109 -30 -66 q -30 -23 -25 -6 q -10 -13 34 -19 q 78 -25 105 -25 q 164 92 187 260 q 210 429 210 668 q 183 668 141 662 q 99 656 84 649 q 79 666 79 708 q 79 751 94 776 q 108 800 144 800 q 221 800 255 797 q 289 794 328 778 q 368 763 382 727 q 396 691 396 628 z"},"U":{"x_min":0,"x_max":827,"ha":827,"o":"m 745 19 q 685 -26 627 -26 q 569 -26 535 4 q 501 34 501 94 q 501 111 502 120 l 492 123 q 393 -25 226 -25 q 65 -25 65 145 q 65 202 81 296 q 97 391 108 456 q 120 522 124 546 l 71 653 q 134 689 180 707 q 227 725 274 725 q 321 725 338 700 q 354 676 354 642 q 354 608 320 424 q 287 240 287 209 q 287 130 341 130 q 381 130 432 181 q 483 232 515 321 q 494 382 494 447 q 494 563 552 644 q 609 725 714 725 q 772 725 807 706 q 798 652 772 510 q 715 209 715 164 q 715 67 745 19 z"},"o":{"x_min":0,"x_max":715,"ha":715,"o":"m 538 524 q 594 524 634 479 q 675 434 675 348 q 675 263 645 190 q 615 118 566 72 q 517 26 455 0 q 393 -25 328 -25 q 197 -25 121 47 q 45 119 45 238 q 45 399 148 500 q 252 600 412 600 q 448 600 484 592 q 495 559 496 517 q 517 524 538 524 z m 415 385 q 415 413 428 448 q 442 483 472 504 q 340 476 290 397 q 247 329 247 257 q 247 185 276 142 q 306 98 352 98 q 454 98 496 231 q 415 281 415 385 z"},"N":{"x_min":0,"x_max":870,"ha":870,"o":"m 578 157 l 602 173 q 537 298 537 447 q 537 563 594 644 q 652 725 757 725 q 812 725 850 706 q 840 650 814 511 q 758 212 758 168 q 758 73 790 26 q 746 -3 709 -14 q 672 -25 614 -25 q 555 -25 508 0 q 460 25 430 66 q 399 108 378 169 q 341 276 333 441 l 317 441 q 271 233 271 150 q 271 67 301 19 q 241 -26 176 -26 q 111 -26 83 12 q 55 49 55 124 q 55 198 118 546 l 65 653 q 177 725 265 725 q 353 725 398 694 q 443 664 461 605 q 479 546 488 480 q 496 415 518 323 q 539 231 578 157 z"},"+":{"x_min":0,"x_max":733,"ha":733,"o":"m 139 283 q 100 283 100 347 q 100 411 131 457 q 185 440 292 440 q 290 518 290 557 q 290 636 366 636 q 410 636 445 618 q 429 579 429 522 q 429 465 431 443 q 492 446 554 446 q 633 446 633 370 q 633 326 615 291 q 576 307 505 307 q 483 307 443 305 q 453 195 453 142 q 453 103 389 103 q 325 103 279 134 q 296 188 296 292 q 201 283 139 283 z"},"G":{"x_min":0,"x_max":722,"ha":722,"o":"m 488 192 l 437 297 q 544 368 630 368 q 702 368 702 287 q 702 264 674 146 q 647 29 647 -33 q 647 -95 674 -125 q 618 -166 557 -166 q 496 -166 470 -126 q 445 -86 445 -9 q 391 -25 333 -25 q 197 -25 114 59 q 30 143 30 307 q 30 377 60 450 q 90 522 145 584 q 200 646 288 686 q 377 725 472 725 q 566 725 620 690 q 673 655 673 593 q 673 531 632 496 q 592 462 540 462 q 488 462 446 484 q 405 507 380 549 q 326 523 287 447 q 248 371 248 288 q 248 205 280 164 q 313 122 362 122 q 433 122 488 192 z"},"q":{"x_min":0,"x_max":737,"ha":737,"o":"m 418 72 l 408 77 q 371 28 321 2 q 271 -25 221 -25 q 144 -25 92 36 q 40 96 40 210 q 40 361 126 476 q 168 532 238 566 q 307 600 384 600 q 462 600 525 566 q 562 575 601 575 q 691 575 691 477 q 691 461 670 373 q 609 109 609 -46 l 659 -126 q 561 -199 474 -199 q 428 -199 408 -182 q 387 -165 387 -135 q 387 -105 400 -30 q 414 45 418 72 z m 323 125 q 388 125 434 191 q 457 343 484 500 q 457 506 435 506 q 368 506 320 468 q 229 399 229 270 q 229 209 254 167 q 279 125 323 125 z"},"d":{"x_min":0,"x_max":748,"ha":748,"o":"m 432 73 l 422 78 q 344 -25 236 -25 q 156 -25 100 38 q 45 102 45 210 q 45 344 139 454 q 185 508 262 542 q 339 575 434 575 q 452 575 498 571 q 500 592 507 622 l 451 702 q 576 775 648 775 q 689 775 706 758 q 723 742 723 696 q 723 651 678 440 q 634 229 634 140 q 634 52 665 24 q 609 -25 548 -25 q 488 -25 460 6 q 432 36 432 73 z m 233 248 q 233 191 262 158 q 292 125 336 125 q 393 125 440 179 q 456 357 485 487 q 370 487 302 413 q 233 339 233 248 z"},"1":{"x_min":0,"x_max":569,"ha":569,"o":"m 180 145 q 180 207 222 417 q 154 417 106 455 q 57 493 47 573 q 128 589 200 622 q 273 654 322 677 q 371 700 410 700 q 481 700 481 620 q 481 571 442 392 q 403 214 403 138 q 403 61 432 12 q 365 -25 304 -25 q 180 -25 180 145 z"},"5":{"x_min":0,"x_max":635,"ha":635,"o":"m 114 56 q 196 56 239 -26 q 290 -18 322 18 q 353 55 353 102 q 353 149 317 184 q 281 218 209 218 q 173 218 127 208 q 98 210 98 231 l 135 527 q 98 569 98 610 q 98 652 122 676 q 146 700 188 700 q 257 700 298 630 q 349 630 435 648 q 521 666 594 693 q 600 663 600 628 q 600 456 409 456 q 399 456 301 462 l 290 348 q 406 342 492 289 q 536 262 562 217 q 588 172 588 114 q 588 0 482 -78 q 377 -156 210 -156 q 114 -156 60 -126 q 7 -96 7 -46 q 7 3 41 30 q 75 56 114 56 z"}}}
